HIERARCHY
ROOT Hips
{
	OFFSET 0.000000 89.005402 0.000000
	CHANNELS 6 Xposition Yposition Zposition Xrotation Yrotation Zrotation
	JOINT Spine
	{
		OFFSET 0.116900 10.681000 0.373400
		CHANNELS 3 Xrotation Yrotation Zrotation
		JOINT Spine1
		{
			OFFSET 0.000000 13.840401 0.053500
			CHANNELS 3 Xrotation Yrotation Zrotation
			JOINT Spine2
			{
				OFFSET 0.000000 14.712700 -0.366200
				CHANNELS 3 Xrotation Yrotation Zrotation
				JOINT Neck
				{
					OFFSET 0.000000 35.415497 -3.314200
					CHANNELS 3 Xrotation Yrotation Zrotation
					JOINT Head
					{
						OFFSET 0.000000 16.899200 1.218300
						CHANNELS 3 Xrotation Yrotation Zrotation
						JOINT HeadTop_End
						{
							OFFSET 0.000000 22.206207 2.192500
							CHANNELS 3 Xrotation Yrotation Zrotation
							End Site
							{
								OFFSET 0.000000 22.314178 0.000000
							}
						}
					}
				}
				JOINT LeftShoulder
				{
					OFFSET 12.896400 26.716293 -4.548400
					CHANNELS 3 Xrotation Yrotation Zrotation
					JOINT LeftArm
					{
						OFFSET 19.027000 -4.857010 -1.718400
						CHANNELS 3 Xrotation Yrotation Zrotation
						JOINT LeftForeArm
						{
							OFFSET 24.179897 0.000000 0.000000
							CHANNELS 3 Xrotation Yrotation Zrotation
							JOINT LeftHand
							{
								OFFSET 27.156403 0.000000 0.000000
								CHANNELS 3 Xrotation Yrotation Zrotation
								JOINT LeftHandIndex1
								{
									OFFSET 16.441200 0.000000 0.000000
									CHANNELS 3 Xrotation Yrotation Zrotation
									JOINT LeftHandIndex2
									{
										OFFSET 4.821899 0.000000 0.000000
										CHANNELS 3 Xrotation Yrotation Zrotation
										JOINT LeftHandIndex3
										{
											OFFSET 6.386497 0.000000 0.000000
											CHANNELS 3 Xrotation Yrotation Zrotation
											JOINT LeftHandIndex4
											{
												OFFSET 5.188988 0.000000 0.000000
												CHANNELS 3 Xrotation Yrotation Zrotation
												End Site
												{
													OFFSET -0.178703 5.185913 0.000177
												}
											}
										}
									}
								}
								JOINT LeftHandThumb1
								{
									OFFSET 6.534897 -5.032593 5.900300
									CHANNELS 3 Xrotation Yrotation Zrotation
									JOINT LeftHandThumb2
									{
										OFFSET 3.818176 -2.204422 2.204423
										CHANNELS 3 Xrotation Yrotation Zrotation
										JOINT LeftHandThumb3
										{
											OFFSET 3.252098 -1.877594 1.877601
											CHANNELS 3 Xrotation Yrotation Zrotation
											JOINT LeftHandThumb4
											{
												OFFSET 5.251778 -3.032120 3.032117
												CHANNELS 3 Xrotation Yrotation Zrotation
												End Site
												{
													OFFSET 0.000023 6.780014 0.000000
												}
											}
										}
									}
								}
							}
						}
					}
				}
				JOINT RightShoulder
				{
					OFFSET -12.896300 26.716293 -4.548400
					CHANNELS 3 Xrotation Yrotation Zrotation
					JOINT RightArm
					{
						OFFSET -19.027000 -4.857010 -1.718400
						CHANNELS 3 Xrotation Yrotation Zrotation
						JOINT RightForeArm
						{
							OFFSET -24.179897 0.000000 0.000000
							CHANNELS 3 Xrotation Yrotation Zrotation
							JOINT RightHand
							{
								OFFSET -27.156403 0.000000 0.000000
								CHANNELS 3 Xrotation Yrotation Zrotation
								JOINT RightHandThumb1
								{
									OFFSET -6.591202 -4.852203 5.988100
									CHANNELS 3 Xrotation Yrotation Zrotation
									JOINT RightHandThumb2
									{
										OFFSET -3.818176 -2.204422 2.204423
										CHANNELS 3 Xrotation Yrotation Zrotation
										JOINT RightHandThumb3
										{
											OFFSET -3.252098 -1.877594 1.877601
											CHANNELS 3 Xrotation Yrotation Zrotation
											JOINT RightHandThumb4
											{
												OFFSET -5.251778 -3.032120 3.032117
												CHANNELS 3 Xrotation Yrotation Zrotation
												End Site
												{
													OFFSET -0.000023 6.780014 0.000000
												}
											}
										}
									}
								}
								JOINT RightHandIndex1
								{
									OFFSET -16.029404 0.000000 0.000000
									CHANNELS 3 Xrotation Yrotation Zrotation
									JOINT RightHandIndex2
									{
										OFFSET -5.213303 0.000000 0.000000
										CHANNELS 3 Xrotation Yrotation Zrotation
										JOINT RightHandIndex3
										{
											OFFSET -6.386528 0.000000 0.000000
											CHANNELS 3 Xrotation Yrotation Zrotation
											JOINT RightHandIndex4
											{
												OFFSET -5.189026 0.000000 0.000000
												CHANNELS 3 Xrotation Yrotation Zrotation
												End Site
												{
													OFFSET 0.236702 5.183624 0.001972
												}
											}
										}
									}
								}
							}
						}
					}
				}
			}
		}
	}
	JOINT LeftUpLeg
	{
		OFFSET 14.073000 -7.904099 -1.463000
		CHANNELS 3 Xrotation Yrotation Zrotation
		JOINT LeftLeg
		{
			OFFSET -0.109806 -34.073280 4.093200
			CHANNELS 3 Xrotation Yrotation Zrotation
			JOINT LeftFoot
			{
				OFFSET 0.109806 -29.899420 -6.319000
				CHANNELS 3 Xrotation Yrotation Zrotation
				JOINT LeftToeBase
				{
					OFFSET 1.551100 -14.988700 20.535801
					CHANNELS 3 Xrotation Yrotation Zrotation
					JOINT LeftToe_End
					{
						OFFSET 0.221200 0.570800 13.248301
						CHANNELS 3 Xrotation Yrotation Zrotation
						End Site
						{
							OFFSET 0.000000 13.262435 0.000000
						}
					}
				}
			}
		}
	}
	JOINT RightUpLeg
	{
		OFFSET -13.839300 -7.904099 -1.463000
		CHANNELS 3 Xrotation Yrotation Zrotation
		JOINT RightLeg
		{
			OFFSET 0.109694 -34.073219 4.093300
			CHANNELS 3 Xrotation Yrotation Zrotation
			JOINT RightFoot
			{
				OFFSET -0.109694 -29.899384 -6.319200
				CHANNELS 3 Xrotation Yrotation Zrotation
				JOINT RightToeBase
				{
					OFFSET -1.551100 -14.988700 20.535801
					CHANNELS 3 Xrotation Yrotation Zrotation
					JOINT RightToe_End
					{
						OFFSET -0.221200 0.570900 13.248299
						CHANNELS 3 Xrotation Yrotation Zrotation
						End Site
						{
							OFFSET 0.000000 13.262440 0.000000
						}
					}
				}
			}
		}
	}
}
MOTION
Frames: 4
Frame Time: 0.033333
-2.647783 65.866653 81.032402 -7.050089 -13.295840 -8.490034 14.306870 1.515173 5.944612 26.430042 0.145392 4.392665 26.610393 -0.615218 3.243174 -6.060341 1.370852 5.754958 -29.213918 15.179749 -2.014866 0.000001 0.000000 -0.000000 0.136543 -2.437855 28.500906 -119.158579 -23.792511 -66.338868 -0.000006 -25.500171 -0.000005 -107.014079 -11.274487 3.506516 0.677751 2.983788 -25.589382 0.720948 3.072260 -26.407202 0.182480 1.577815 -13.193935 0.000000 0.000001 -0.000001 12.451968 1.499764 -6.295671 14.891679 14.963041 -2.686178 4.759721 5.247539 1.608927 -0.000001 0.000001 -0.000001 0.027695 -1.319235 -11.119208 -90.118984 7.325523 71.336053 0.000611 99.018502 -0.000581 4.969305 -2.503316 18.491176 15.769642 -8.670693 32.984090 -17.469104 -30.528750 -34.327417 -8.186765 -12.507794 -17.038202 0.000001 -0.000000 -0.000001 4.047676 -6.316556 65.272860 7.347212 -6.936824 93.299913 2.165140 -5.045702 46.426995 -0.000000 -0.000003 0.000000 -24.179742 15.818223 -3.090601 90.442537 10.483081 1.305670 -50.765108 16.107171 5.001984 -18.544544 0.000002 0.000004 0.000000 0.000002 0.000000 -63.029245 -9.663820 1.405826 62.057050 -7.622327 -0.472455 -16.178541 -0.764325 -0.325351 -0.034658 -0.000005 -0.000001 0.000003 -0.000001 0.000000 
-2.931271 65.556549 83.056534 -6.818707 -12.695734 -8.137062 14.158027 1.744598 5.873189 26.162104 -0.229868 4.252500 26.322137 -0.998669 3.123584 -5.811571 1.176493 5.982914 -29.415576 14.392481 -1.585585 -0.000002 0.000000 -0.000000 0.253724 -2.773237 28.952919 -118.919181 -24.740378 -65.691742 0.000022 -24.798600 0.000020 -107.590847 -10.560774 3.269769 0.677750 2.983789 -25.589384 0.720951 3.072260 -26.407202 0.182477 1.577815 -13.193932 -0.000002 -0.000001 -0.000001 12.451972 1.499765 -6.295673 14.891684 14.963035 -2.686181 4.759719 5.247539 1.608929 0.000001 -0.000000 0.000000 -0.015157 -1.655600 -10.579409 -90.079595 7.883759 71.765802 0.000572 99.126959 -0.000590 4.640475 -3.619952 17.445427 15.769643 -8.670695 32.984097 -17.469097 -30.528750 -34.327417 -8.186764 -12.507792 -17.038202 0.000002 0.000001 -0.000000 4.047681 -6.316553 65.272860 7.347218 -6.936821 93.299913 2.165141 -5.045702 46.426995 0.000001 -0.000005 0.000002 -22.758600 15.944650 -3.863323 91.839065 10.858054 1.410726 -51.462289 16.228097 5.128204 -20.544024 0.000004 0.000001 -0.000001 -0.000001 -0.000000 -62.940897 -11.388714 5.088621 53.424674 -10.380282 -0.848824 -17.704274 -3.169263 -1.230961 0.005089 0.000006 0.000009 0.000001 -0.000001 0.000000 
-3.263826 65.069946 85.391800 -6.795371 -11.776407 -7.579652 14.006825 1.602912 5.697830 25.923892 -0.667471 4.107866 26.060201 -1.438378 2.996327 -5.585504 1.053944 6.118201 -29.367293 13.834193 -1.121946 -0.000000 0.000001 -0.000001 0.379464 -3.110651 29.288872 -118.696093 -26.112378 -65.269240 -0.000014 -23.622786 -0.000009 -108.701108 -10.225981 2.890687 0.677751 2.983790 -25.589386 0.720952 3.072256 -26.407200 0.182481 1.577815 -13.193936 0.000001 -0.000002 -0.000001 12.451966 1.499767 -6.295673 14.891686 14.963037 -2.686179 4.759721 5.247536 1.608925 0.000003 -0.000002 0.000002 -0.031061 -1.876706 -9.983269 -89.946433 8.448325 72.128225 0.000593 99.137962 -0.000584 4.456105 -4.577161 16.699157 15.769645 -8.670697 32.984100 -17.469098 -30.528743 -34.327424 -8.186761 -12.507796 -17.038201 -0.000001 -0.000002 -0.000001 4.047681 -6.316554 65.272860 7.347217 -6.936825 93.299913 2.165142 -5.045704 46.426995 0.000000 -0.000001 0.000001 -20.597820 16.229450 -4.541929 93.370639 11.090299 1.454163 -52.312682 15.701408 4.845463 -22.431315 0.000001 0.000001 0.000000 -0.000001 -0.000000 -62.546139 -12.213986 8.908340 47.002442 -10.358256 -1.119157 -18.923292 -6.946759 -5.564740 -0.001535 0.000009 0.000002 0.000001 -0.000001 0.000000 
-3.563258 64.448402 88.134247 -7.318982 -10.750445 -7.210664 14.051908 1.365233 5.733968 25.977086 -1.031306 4.027821 26.096017 -1.798110 2.909841 -5.422080 1.020128 6.138288 -29.056516 13.594709 -0.706935 0.000001 0.000000 0.000000 0.538154 -3.513536 29.555198 -118.915929 -27.674415 -64.892036 -0.000005 -22.131370 -0.000002 -110.321776 -9.968466 2.390797 0.677750 2.983790 -25.589382 0.720951 3.072255 -26.407195 0.182481 1.577814 -13.193937 0.000002 -0.000001 -0.000000 12.451969 1.499767 -6.295674 14.891677 14.963032 -2.686180 4.759719 5.247535 1.608924 -0.000002 -0.000001 0.000000 -0.027532 -1.973205 -9.619716 -90.199874 8.516986 72.253839 0.000409 99.169128 -0.000387 4.595143 -5.306479 16.741116 15.769642 -8.670695 32.984090 -17.469105 -30.528746 -34.327421 -8.186762 -12.507797 -17.038201 0.000002 0.000001 0.000000 4.047681 -6.316558 65.272860 7.347219 -6.936816 93.299913 2.165138 -5.045705 46.426999 0.000001 -0.000000 -0.000000 -17.380748 16.546422 -4.493555 95.032971 10.941774 1.364123 -53.025456 14.601070 3.319191 -24.944064 -0.000000 0.000000 0.000001 0.000001 -0.000000 -61.746208 -12.142692 11.972116 44.256754 -10.257356 -1.260495 -18.744003 -8.197525 -9.876562 -0.001528 -0.000005 -0.000007 -0.000002 -0.000002 0.000000 
